<?xml version="1.0" standalone="no"?>
<!DOCTYPE svg PUBLIC "-//W3C//DTD SVG 20010904//EN"
 "http://www.w3.org/TR/2001/REC-SVG-20010904/DTD/svg10.dtd">
<svg version="1.0" xmlns="http://www.w3.org/2000/svg"
 width="512.000000pt" height="512.000000pt" viewBox="0 0 512.000000 512.000000"
 preserveAspectRatio="xMidYMid meet">

<g transform="translate(0.000000,512.000000) scale(0.100000,-0.100000)"
fill="#000000" stroke="none">
<path d="M2220 5101 c-265 -71 -430 -342 -365 -596 49 -193 187 -331 380 -380
258 -66 530 107 600 380 66 258 -107 533 -376 599 -83 20 -157 20 -239 -3z"/>
<path d="M2285 3894 c-150 -32 -248 -97 -320 -213 -61 -99 -59 -64 -63 -911
-2 -524 1 -796 8 -840 30 -180 171 -328 347 -365 55 -12 181 -15 643 -15 l575
0 300 -593 c228 -451 310 -603 343 -638 109 -119 288 -126 407 -18 69 64 98
130 99 223 l0 70 -163 320 c-607 1197 -579 1147 -676 1199 -39 22 -51 22 -517
25 l-478 3 0 99 0 100 383 0 c238 0 396 4 420 11 21 6 56 27 78 46 127 115
104 294 -48 369 -35 18 -69 19 -435 22 l-398 3 0 343 c0 192 -5 367 -10 397
-25 129 -126 270 -232 321 -82 40 -190 57 -263 42z"/>
<path d="M1531 3029 c-99 -35 -260 -117 -351 -179 -549 -376 -798 -1038 -635
-1683 85 -334 295 -644 580 -858 315 -237 746 -349 1132 -294 507 72 928 365
1171 814 l40 74 -86 174 -87 173 -86 0 -86 0 -12 -42 c-7 -24 -30 -79 -52
-123 -143 -299 -418 -526 -732 -604 -684 -172 -1354 325 -1384 1025 -6 140 7
251 44 374 83 279 270 510 529 655 l84 47 0 234 c0 129 -3 234 -7 233 -5 0
-32 -9 -62 -20z"/>
</g>
</svg>
