<?xml version="1.0" standalone="no"?>
<!DOCTYPE svg PUBLIC "-//W3C//DTD SVG 20010904//EN"
 "http://www.w3.org/TR/2001/REC-SVG-20010904/DTD/svg10.dtd">
<svg version="1.0" xmlns="http://www.w3.org/2000/svg"
 width="512.000000pt" height="512.000000pt" viewBox="0 0 512.000000 512.000000"
 preserveAspectRatio="xMidYMid meet">

<g transform="translate(0.000000,512.000000) scale(0.100000,-0.100000)"
fill="#000000" stroke="none">
<path d="M2865 5029 c-16 -7 -46 -23 -65 -38 -96 -71 -1223 -1076 -1264 -1127
-108 -135 -115 -155 -491 -1474 -190 -668 -355 -1245 -366 -1282 l-20 -68
-265 0 -265 0 -24 -25 -25 -24 0 -431 0 -431 25 -24 24 -25 344 0 c385 0 405
3 471 67 28 27 77 115 184 328 l145 290 428 1325 c236 729 436 1340 444 1359
l16 33 50 -47 c94 -87 194 -108 294 -61 70 34 974 939 1004 1006 27 59 27 141
0 200 -24 54 -350 388 -418 428 -35 20 -59 26 -120 29 -42 1 -89 -2 -106 -8z
m219 -229 l81 -79 -566 -568 c-311 -312 -573 -584 -583 -604 l-19 -35 -48 48
c-69 69 -158 108 -259 115 l-79 6 13 26 c30 57 125 145 694 648 l593 523 46 0
c44 0 49 -3 127 -80z m244 -243 c59 -60 58 -97 -3 -157 l-45 -44 -62 62 -63
62 60 60 c33 33 62 60 65 60 3 0 25 -19 48 -43z m-223 -257 l60 -60 -103 -103
-102 -102 -62 63 -63 62 100 100 c55 55 102 100 105 100 3 0 32 -27 65 -60z
m-320 -320 l60 -60 -103 -103 -102 -102 -62 63 -63 62 100 100 c55 55 102 100
105 100 3 0 32 -27 65 -60z m-320 -320 l59 -60 -44 -45 c-36 -37 -51 -45 -80
-45 -29 0 -44 8 -80 45 l-44 45 59 60 c33 33 62 60 65 60 3 0 32 -27 65 -60z
m-724 -151 c52 -16 102 -59 150 -130 l40 -60 -337 -1042 c-185 -573 -340
-1046 -344 -1051 -5 -4 -82 16 -172 46 -137 47 -163 58 -161 74 1 10 140 504
309 1097 l308 1077 84 0 c47 0 102 -5 123 -11z m-711 -2390 c85 -28 158 -54
162 -58 3 -3 -5 -41 -18 -83 l-24 -76 -162 54 c-88 29 -163 55 -165 58 -6 5
39 156 46 156 3 0 76 -23 161 -51z m-323 -251 c-3 -7 -67 -151 -142 -320
l-137 -308 -94 0 -94 0 0 320 0 320 236 0 c185 0 235 -3 231 -12z m373 -120
c0 -23 -242 -489 -259 -498 -22 -11 -211 -14 -211 -2 0 4 57 136 127 293 l127
286 108 -36 c59 -19 108 -39 108 -43z"/>
<path d="M1674 3358 c-3 -13 -145 -457 -315 -987 -170 -531 -309 -970 -309
-977 0 -12 135 -62 144 -53 6 5 636 1973 636 1985 0 8 -122 54 -143 54 -3 0
-9 -10 -13 -22z"/>
<path d="M3437 4082 c-26 -26 -47 -52 -47 -58 0 -5 52 -61 115 -124 l115 -115
57 58 58 57 -115 115 c-63 63 -119 115 -125 115 -6 0 -32 -22 -58 -48z"/>
<path d="M3117 3762 c-26 -26 -47 -52 -47 -58 0 -5 52 -61 115 -124 l115 -115
57 58 58 57 -115 115 c-63 63 -119 115 -125 115 -6 0 -32 -22 -58 -48z"/>
<path d="M3757 3762 c-26 -26 -47 -52 -47 -58 0 -5 52 -61 115 -124 l115 -115
57 58 58 57 -115 115 c-63 63 -119 115 -125 115 -6 0 -32 -22 -58 -48z"/>
<path d="M2797 3442 c-26 -26 -47 -52 -47 -58 0 -5 52 -61 115 -124 l115 -115
57 58 58 57 -115 115 c-63 63 -119 115 -125 115 -6 0 -32 -22 -58 -48z"/>
<path d="M3437 3442 c-26 -26 -47 -52 -47 -58 0 -5 52 -61 115 -124 l115 -115
57 58 58 57 -115 115 c-63 63 -119 115 -125 115 -6 0 -32 -22 -58 -48z"/>
<path d="M4077 3442 c-26 -26 -47 -52 -47 -58 0 -5 52 -61 115 -124 l115 -115
57 58 58 57 -115 115 c-63 63 -119 115 -125 115 -6 0 -32 -22 -58 -48z"/>
<path d="M3117 3122 c-26 -26 -47 -52 -47 -58 0 -5 52 -61 115 -124 l115 -115
57 58 58 57 -115 115 c-63 63 -119 115 -125 115 -6 0 -32 -22 -58 -48z"/>
<path d="M3757 3122 c-26 -26 -47 -52 -47 -58 0 -5 52 -61 115 -124 l115 -115
57 58 58 57 -115 115 c-63 63 -119 115 -125 115 -6 0 -32 -22 -58 -48z"/>
<path d="M4397 3122 c-26 -26 -47 -52 -47 -58 0 -5 52 -61 115 -124 l115 -115
57 58 58 57 -115 115 c-63 63 -119 115 -125 115 -6 0 -32 -22 -58 -48z"/>
<path d="M3437 2802 c-26 -26 -47 -52 -47 -58 0 -5 52 -61 115 -124 l115 -115
57 58 58 57 -115 115 c-63 63 -119 115 -125 115 -6 0 -32 -22 -58 -48z"/>
<path d="M4077 2802 c-26 -26 -47 -52 -47 -58 0 -5 52 -61 115 -124 l115 -115
57 58 58 57 -115 115 c-63 63 -119 115 -125 115 -6 0 -32 -22 -58 -48z"/>
<path d="M4717 2802 c-26 -26 -47 -52 -47 -58 0 -5 52 -61 115 -124 l115 -115
57 58 58 57 -115 115 c-63 63 -119 115 -125 115 -6 0 -32 -22 -58 -48z"/>
<path d="M3757 2482 c-26 -26 -47 -52 -47 -58 0 -5 52 -61 115 -124 l115 -115
57 58 58 57 -115 115 c-63 63 -119 115 -125 115 -6 0 -32 -22 -58 -48z"/>
<path d="M4397 2482 c-26 -26 -47 -52 -47 -58 0 -5 52 -61 115 -124 l115 -115
57 58 58 57 -115 115 c-63 63 -119 115 -125 115 -6 0 -32 -22 -58 -48z"/>
<path d="M4077 2162 c-26 -26 -47 -52 -47 -58 0 -5 52 -61 115 -124 l115 -115
57 58 58 57 -115 115 c-63 63 -119 115 -125 115 -6 0 -32 -22 -58 -48z"/>
</g>
</svg>
