<?xml version="1.0" encoding="UTF-8"?>
<!DOCTYPE svg PUBLIC "-//W3C//DTD SVG 1.1//EN" "http://www.w3.org/Graphics/SVG/1.1/DTD/svg11.dtd">
<svg xmlns="http://www.w3.org/2000/svg" version="1.1" width="512px" height="512px" style="shape-rendering:geometricPrecision; text-rendering:geometricPrecision; image-rendering:optimizeQuality; fill-rule:evenodd; clip-rule:evenodd" xmlns:xlink="http://www.w3.org/1999/xlink">
<g><path style="opacity:0.923" fill="#672a1f" d="M 166.5,50.5 C 225.834,50.3333 285.168,50.5 344.5,51C 349.651,51.91 354.318,53.91 358.5,57C 368,66.5 377.5,76 387,85.5C 390.378,90.6799 392.378,96.3466 393,102.5C 393.167,137 393.333,171.5 393.5,206C 393.651,242.204 393.151,278.371 392,314.5C 385.855,327.02 375.689,332.854 361.5,332C 357.759,333.738 354.592,336.238 352,339.5C 348.516,360.102 342.849,380.102 335,399.5C 325.143,421.684 309.976,439.184 289.5,452C 257.901,466.733 229.235,462.4 203.5,439C 186.046,420.603 173.88,399.103 167,374.5C 164.455,362.771 161.789,351.105 159,339.5C 153.185,332.496 145.685,329.329 136.5,330C 127.763,327.596 121.929,322.096 119,313.5C 117.35,243.203 117.016,172.869 118,102.5C 118.622,96.3466 120.622,90.6799 124,85.5C 133.5,76 143,66.5 152.5,57C 156.877,53.9748 161.544,51.8081 166.5,50.5 Z"/></g>
<g><path style="opacity:1" fill="#e4e4e4" d="M 373.5,322.5 C 373.667,253.499 373.5,184.499 373,115.5C 371.194,110.554 368.861,105.888 366,101.5C 357.833,93.3333 349.667,85.1667 341.5,77C 336.34,73.5006 330.674,71.1672 324.5,70C 267.833,69.3333 211.167,69.3333 154.5,70C 152.134,70.4396 149.801,70.9396 147.5,71.5C 152.467,65.7096 158.467,61.2096 165.5,58C 224.833,57.3333 284.167,57.3333 343.5,58C 348.714,59.2738 353.381,61.6071 357.5,65C 366.735,73.5652 375.235,82.7319 383,92.5C 384.197,95.0891 385.197,97.7558 386,100.5C 386.667,170.5 386.667,240.5 386,310.5C 383.912,316.757 379.745,320.757 373.5,322.5 Z"/></g>
<g><path style="opacity:1" fill="#fefdfd" d="M 373.5,322.5 C 358.833,322.253 348.666,328.92 343,342.5C 339.948,379.428 325.448,410.928 299.5,437C 263.67,462.081 230.837,458.581 201,426.5C 188.863,410.896 179.863,393.563 174,374.5C 171.239,362.155 168.572,349.822 166,337.5C 159.955,327.697 151.122,323.197 139.5,324C 132,321.833 127.167,317 125,309.5C 124.333,239.833 124.333,170.167 125,100.5C 126.392,94.7863 129.059,89.7863 133,85.5C 137.702,80.6301 142.535,75.9634 147.5,71.5C 149.801,70.9396 152.134,70.4396 154.5,70C 211.167,69.3333 267.833,69.3333 324.5,70C 330.674,71.1672 336.34,73.5006 341.5,77C 349.667,85.1667 357.833,93.3333 366,101.5C 368.861,105.888 371.194,110.554 373,115.5C 373.5,184.499 373.667,253.499 373.5,322.5 Z"/></g>
<g><path style="opacity:1" fill="#6b3025" d="M 336.5,181.5 C 335.539,183.265 335.205,185.265 335.5,187.5C 345.167,187.5 354.833,187.5 364.5,187.5C 367.124,189.198 367.124,191.031 364.5,193C 354.506,193.5 344.506,193.666 334.5,193.5C 334.126,201.195 333.46,208.861 332.5,216.5C 331.532,218.607 331.198,220.941 331.5,223.5C 342.5,223.5 353.5,223.5 364.5,223.5C 367.124,225.198 367.124,227.031 364.5,229C 353.172,229.5 341.838,229.667 330.5,229.5C 329.866,239.208 328.866,248.875 327.5,258.5C 339.838,258.333 352.171,258.5 364.5,259C 367.167,261 367.167,263 364.5,265C 351.838,265.5 339.171,265.667 326.5,265.5C 325.32,275.145 324.32,284.812 323.5,294.5C 337.171,294.333 350.837,294.5 364.5,295C 367.167,297 367.167,299 364.5,301C 350.504,301.5 336.504,301.667 322.5,301.5C 320.996,316.867 319.163,332.2 317,347.5C 309.128,380.035 288.462,397.368 255,399.5C 224.068,397.048 204.068,381.048 195,351.5C 192.139,334.916 189.972,318.25 188.5,301.5C 173.83,301.667 159.163,301.5 144.5,301C 141.833,299 141.833,297 144.5,295C 158.829,294.5 173.163,294.333 187.5,294.5C 186.68,284.812 185.68,275.145 184.5,265.5C 171.163,265.667 157.829,265.5 144.5,265C 141.833,263 141.833,261 144.5,259C 157.496,258.5 170.496,258.333 183.5,258.5C 182.134,248.875 181.134,239.208 180.5,229.5C 168.149,229.832 155.815,229.499 143.5,228.5C 141.991,226.38 142.324,224.713 144.5,223.5C 156.167,223.5 167.833,223.5 179.5,223.5C 179.802,220.941 179.468,218.607 178.5,216.5C 177.54,208.861 176.874,201.195 176.5,193.5C 165.495,193.667 154.495,193.5 143.5,193C 142.02,190.765 142.353,188.932 144.5,187.5C 154.833,187.5 165.167,187.5 175.5,187.5C 175.795,185.265 175.461,183.265 174.5,181.5C 171.698,142.257 187.698,113.757 222.5,96C 260.511,82.4514 293.011,90.618 320,120.5C 333.144,138.697 338.644,159.031 336.5,181.5 Z"/></g>
<g><path style="opacity:1" fill="#d4e6f0" d="M 313.5,123.5 C 318.84,134.361 321.84,145.861 322.5,158C 316.503,219.977 309.336,281.81 301,343.5C 289.407,373.385 267.574,387.218 235.5,385C 231.406,384.443 227.406,383.61 223.5,382.5C 210.133,373.785 202.3,361.452 200,345.5C 193.727,291.493 187.393,237.493 181,183.5C 177.295,145.396 192.462,117.896 226.5,101C 255.903,90.4822 282.57,95.1489 306.5,115C 309.423,117.416 311.757,120.25 313.5,123.5 Z"/></g>
<g><path style="opacity:1" fill="#682c21" d="M 244.5,115.5 C 277.222,112.743 298.055,127.076 307,158.5C 308.885,189.922 294.719,209.755 264.5,218C 234.098,220.718 214.265,207.551 205,178.5C 200.926,146.64 214.093,125.64 244.5,115.5 Z"/></g>
<g><path style="opacity:1" fill="#acbac2" d="M 289.5,137.5 C 264.664,130.5 244.83,137.5 230,158.5C 222.714,172.297 221.547,186.63 226.5,201.5C 215.715,192.559 210.048,180.893 209.5,166.5C 212.254,138.912 227.421,123.912 255,121.5C 269.219,121.364 280.719,126.697 289.5,137.5 Z"/></g>
<g><path style="opacity:1" fill="#becdd7" d="M 313.5,123.5 C 324.584,136.526 330.251,151.692 330.5,169C 324.72,227.909 318.22,286.742 311,345.5C 301.904,380.239 279.404,395.739 243.5,392C 236.115,390.139 229.448,386.972 223.5,382.5C 227.406,383.61 231.406,384.443 235.5,385C 267.574,387.218 289.407,373.385 301,343.5C 309.336,281.81 316.503,219.977 322.5,158C 321.84,145.861 318.84,134.361 313.5,123.5 Z"/></g>
<g><path style="opacity:1" fill="#bfcfd9" d="M 289.5,137.5 C 297.373,145.425 301.373,155.092 301.5,166.5C 299.008,195.326 283.341,210.659 254.5,212.5C 243.548,212.682 234.214,209.015 226.5,201.5C 221.547,186.63 222.714,172.297 230,158.5C 244.83,137.5 264.664,130.5 289.5,137.5 Z"/></g>
<g><path style="opacity:1" fill="#bea5a0" d="M 174.5,181.5 C 175.461,183.265 175.795,185.265 175.5,187.5C 165.167,187.5 154.833,187.5 144.5,187.5C 154.319,186.506 164.319,186.173 174.5,186.5C 174.5,184.833 174.5,183.167 174.5,181.5 Z"/></g>
<g><path style="opacity:1" fill="#bea5a0" d="M 336.5,181.5 C 336.5,183.167 336.5,184.833 336.5,186.5C 346.015,186.173 355.348,186.506 364.5,187.5C 354.833,187.5 345.167,187.5 335.5,187.5C 335.205,185.265 335.539,183.265 336.5,181.5 Z"/></g>
<g><path style="opacity:1" fill="#c0a7a2" d="M 178.5,216.5 C 179.468,218.607 179.802,220.941 179.5,223.5C 167.833,223.5 156.167,223.5 144.5,223.5C 155.654,222.505 166.988,222.172 178.5,222.5C 178.5,220.5 178.5,218.5 178.5,216.5 Z"/></g>
<g><path style="opacity:1" fill="#c0a7a2" d="M 332.5,216.5 C 332.5,218.5 332.5,220.5 332.5,222.5C 343.346,222.172 354.013,222.506 364.5,223.5C 353.5,223.5 342.5,223.5 331.5,223.5C 331.198,220.941 331.532,218.607 332.5,216.5 Z"/></g>
</svg>
