<?xml version="1.0"?>
<svg xmlns="http://www.w3.org/2000/svg" xmlns:xlink="http://www.w3.org/1999/xlink" version="1.1" id="Capa_1" x="0px" y="0px" viewBox="-70 80 500 600" style="enable-background:new 0 0 368 368;" xml:space="preserve" width="512px" height="512px" ><g><g>
	<g transform="rotate(30)">
		<path d="M296,48c-39.704,0-72,32.304-72,72c0,4.416,3.576,8,8,8s8-3.584,8-8c0-30.88,25.128-56,56-56s56,25.12,56,56    s-25.128,56-56,56H8c-4.416,0-8,3.584-8,8s3.584,8,8,8h288c39.704,0,72-32.304,72-72S335.704,48,296,48z" 
              data-original="#000000" id="active-path-1" class="active-path" data-old_color="#000000" fill="#CD5C5C"/>
	</g>
</g><g>
	<g transform="rotate(30)">
		<path d="M144,32c-30.88,0-56,25.12-56,56c0,4.416,3.584,8,8,8s8-3.584,8-8c0-22.056,17.944-40,40-40c22.056,0,40,17.944,40,40    c0,22.056-17.944,40-40,40H8c-4.416,0-8,3.584-8,8s3.584,8,8,8h136c30.88,0,56-25.12,56-56S174.88,32,144,32z" 
              data-original="#000000" id="active-path-2" class="active-path" data-old_color="#000000" fill="#FF7300"/>
	</g>
</g><g>
	<g transform="rotate(30)">
		<path d="M280,224H8c-4.416,0-8,3.584-8,8c0,4.416,3.584,8,8,8h272c22.056,0,40,17.944,40,40c0,22.056-17.944,40-40,40    c-22.056,0-40-17.944-40-40c0-4.416-3.576-8-8-8s-8,3.584-8,8c0,30.88,25.128,56,56,56s56-25.12,56-56S310.872,224,280,224z" 
              data-original="#000000" id="active-path-3" class="active-path" data-old_color="#000000" fill="#FFA07A"/>
	</g>
</g></g> </svg>
